<?xml version="1.0" encoding="UTF-8"?><svg id="Layer_1" xmlns="http://www.w3.org/2000/svg" viewBox="0 0 1056.39 607.11"><defs><style>.cls-1{fill:#be9a56;}</style></defs><path class="cls-1" d="M60.73,178.93c.85.14,2.51,1.27,2.81,2.27l26.7,68.73,28.52-68.97c2.71-3.5,27.63-2.2,28.47-1.02-16.1,39.51-35.69,77.57-52.68,116.72-7.08,7.32-9.96-6.84-12.14-11.41-13.66-28.66-27.66-57.56-40.36-86.64-1.37-3.15-7.06-14.97-6.88-17.17.07-.88.95-2.51,1.56-2.51,6.77,0,17.92-1,24,0Z"/><path class="cls-1" d="M1021.23,485.93l-428,.99,3.45-2.04c64.3-11.28,128.09-25.55,193.06-32.94l228.04-1.06c1.02-.22,3.45.72,3.45,1.55v33.5Z"/><path class="cls-1" d="M696.27,328.98c1.74-.31,3.46.01,5.18.23,15.49,2,38.27,7.39,53.81,11.18,5.74,1.4,11.18,1.46,11.01,8.99-2.04,26.3,2.54,56.25,0,82.11-.2,2.02.04,3.77-2.05,4.95l-67.5,5.51-.46-112.96Z"/><path class="cls-1" d="M308.23,283.43c.76-2.71,8.14-5.15,10.75-6.25,52.73-22.38,112.03-42.21,166.27-61.73l64.71-23.29h8.54s380.06,105.69,380.06,105.69c1.34.84,1.51,3.11,1.67,4.56,1.3,12.15-.22,27.74-1.04,39.98-2.52,29.61,3.48,65.2.09,94.09-.12,1.01-.46,3.45-1.55,3.45h-18c-.11,0-1.5-1.39-1.5-1.5v-113c0-2.06-16.97-6.44-19.78-7.22-53.45-14.78-108.03-26.67-161.85-40.15-45.21-11.32-92.53-26.04-137.98-35.02-1.86-.37-11.39-2.53-11.39.39v64c0,2.23-2.93,1.5-3.5,1.5h-53c-2.97,0-.52-8.65-.46-10.46.53-16.59-.52-33.29,0-49.89l-2.53-1.14-219.52,62.49c1.25-6.92-1.68-20.49,0-26.5Z"/><path class="cls-1" d="M380.23,176.43c.5-1.74,8.55-5.32,10.64-6.36,49.31-24.48,101.61-46.12,151.72-69.28,52.74-24.38,104.99-50.02,158.14-73.42,64.74,27.07,128.73,56.09,192.82,84.74,6.95,3.11,14.44,5.44,21.36,8.64,2.6,1.21,12.32,4.96,12.32,7.68v22c0,.4-1.61,1.74-2.45,1.51-56.86-23.76-114.24-46.35-171.23-69.83-13.4-5.52-34.58-17.42-47.29-20.7-1.83-.47-3.56-.8-5.46-.43-86.77,37.89-172.65,77.75-258.59,117.44-4.6,2.13-14.87,5.08-18.4,7.6-1.08.77-1.34,1.06-1.59,2.41-1.37,7.51,2.05,29-.93,34.07-.71,1.2-2.76,2.33-4.06,2.94-7.15,3.29-25.65,10.45-32.96,12.05-1.35.3-2.64.64-4.04.45v-61.5Z"/><path class="cls-1" d="M686.23,129.43c.19-.63,1.58-1.66,2.45-1.51l59.03,25.03c2.89,1.22,18.52,6.08,18.52,8.48v74c0,.26-1.33,1.71-2.06,1.12-15.47-5.19-31.45-8.57-47.15-12.9-7.86-2.17-20.42-4.67-27.35-7.65-.9-.39-3.44-1.85-3.44-2.56v-84Z"/><polygon class="cls-1" points="832.22 255.93 779.33 239.83 779.17 165.35 832.73 185.92 832.22 255.93"/><rect class="cls-1" x="161.23" y="178.88" width="26" height="117.05"/><path class="cls-1" d="M484.23,382.93c-1.94-.46-1.92.71-2.82,1.68-2.1,2.3-12.54,16.03-13.82,16.24-2.41.4-11.9-13.86-14.38-16.41-.96-.99-1.31-1.88-2.98-1.52v28c-2.94-.58-12.83,1.51-13.86-1.64l.02-59.7c.42-1.15,1.05-1.71,2.34-1.7,3.75.02,25.17,33.45,28.14,33.96,2.36.41,23.52-29.11,26.8-32.98,1.18-1.16,3.02-1.56,4.09.04,2.66,3.97-.94,51.87.33,60.39-.96,2.9-13.86,2.05-13.86.14v-26.5Z"/><path class="cls-1" d="M599.23,381.93v-30.5c0-4.03,13.08-3.26,13.86-.86-.62,7.18,1.67,59.14-.82,60.91-1.31.93-2.52.49-3.59-.5l-34.45-35.05v33.5c0,1.91-12.9,2.76-13.86-.14,1.28-8.55-2.34-56.37.33-60.39.77-1.15,1.6-1.18,2.86-.83,3.25.9,26.76,27.85,32.66,32.36,1.01.77,1.26,1.93,3.01,1.49Z"/><path class="cls-1" d="M524.23,377.93h20.5c3.8,0,2.28,12,1.5,12h-20.5c-2.14,0-2.14,9,0,9h23c2.22,0,2.22,12,0,12h-37.5c.32-.98-1-2.17-1-2.5v-58c0-.11,1.39-1.5,1.5-1.5h37c2.22,0,2.22,12,0,12h-23c-.11,0-1.5,1.39-1.5,1.5v15.5Z"/><path class="cls-1" d="M253.23,360.93h-23.5c-.11,0-1.5,1.39-1.5,1.5v15.5h20.5c2.38,0,1.3,9.87,1.5,12h-20.5c-2.14,0-2.14,9,0,9h23.5c1.39,4.12,1.39,7.88,0,12h-37.5c-.11,0-1.5-1.39-1.5-1.5v-59c0-.11,1.39-1.5,1.5-1.5h37c2.5,0,1.51,10.03.5,12Z"/><path class="cls-1" d="M141.23,348.93v12h-25v17h20.5c2.22,0,2.22,12,0,12h-20.5v9h25c-.14,4.28,1.39,7.78,0,12h-37.5c-.11,0-1.5-1.39-1.5-1.5v-60.5h39Z"/><path class="cls-1" d="M162.23,348.93l14.01,37c.62.48,1.81-1.57,2.19-2.29,5.19-9.88,7.98-23.57,13.26-33.74,2.13-2.19,11.13-.41,14.53-.97.18,1.4-.08,2.68-.47,4.02-3.66,12.63-17.32,38.28-23.67,51.33-1.65,3.4-4.42,11.69-8.07,5.35-8.18-20.53-19.4-40.05-26.79-60.71h15Z"/><path class="cls-1" d="M664.23,348.93c-.41,2.6,1,10.21-.94,11.56-2.14,1.49-14.06-1.01-14.06,1.94v48.5c-2.16-.3-14,1.02-14-1.5v-48.5h-14v-12h43Z"/><path class="cls-1" d="M278.23,348.93v48.5c0,.11,1.39,1.5,1.5,1.5h18.5v12h-32.5c-.11,0-1.5-1.39-1.5-1.5v-59c0-2.52,11.84-1.2,14-1.5Z"/><path class="cls-1" d="M360.23,570.93c-2.47,3.6-7.55,8.77-11.96,5.47-9.2-6.89,6.78-18.51,3.5-23.5-.51-.77-1.88-1.41-2.52-.97-.56.39-5.05,9.65-6.63,11.88-7.26,10.23-19.67,20.92-16.4-.89-4.74,3.69-10.73,20.69-17.57,12.08-4.01-5.04.64-13.91,3.41-18.75.75-1.32,4.51-7.44,5.16-7.84,1.91-1.17,4.99-.68,5.02,1.96.02,1.46-6.04,10.99-7.19,13.87-1.74,4.35-3.46,10.53,2.71,4.71,4.34-4.09,10.77-17.84,13.89-20.1,2.07-1.5,5.06-1.6,6.56.61-1.25,4.66-4.53,8.25-5.93,13.01-1.55,5.27-2.43,11.16,3.97,4.97,2.12-2.05,9.77-12.99,10.52-15.48.96-3.21-.25-11.78,6.43-8.56,4.44,2.14-1.28,5.66.04,7.48.21.28,5.27,1.01,5.78,3.66.56,2.86-7.82,16.37-6.81,17.37,2.48.39,4.31-1.52,6-2.99,2.95-3.02,5.17-.25,2,2Z"/><path class="cls-1" d="M414.41,575.74c-1.09-1.9,10.94-31.92,7.81-37.81-3.17-3.38-16.05,14.63-14.01,18.99-15.71-7.71,10.44-31.3,18.89-19.39,4.75,6.69-2.51,25.16-5.46,32.31-.61,1.47-.58,2.91,1.07,2.08,1.38-.7,13.75-18.92,15.32-21.69,3.16-5.59,5.16-12.1,8.68-17.1,9.35,3.74-2.8,18.75-6.65,24.13-2.23,3.11-5.39,7.25-7.86,10.14-1.24,1.46-8.36,9.73-8.96,10.03-2.21,1.1-7.81.07-8.83-1.69Z"/><path class="cls-1" d="M204.57,462.28c-6.35,6.66-1.94,20.47,9.14,19.72,6.51-.44,7.85-7.85,14.5.44-14.67,16.99-42.35,1.7-33.18-20.2,5.39-12.88,24.81-14.18,33.18-3.8-6.06,6.77-5.75,2.79-11.15,1.18-4.44-1.33-9.19-.79-12.49,2.67Z"/><path class="cls-1" d="M468.1,459.81c-.15.26-5.07,2.8-5.37,2.8-1.56.01-3.98-2.95-6.21-3.46-18.15-4.22-19.13,25.47-.86,22.73,6.02-.91,6.47-6.96,13.55.56-13.2,14.17-36.43,6.78-35.02-14.04.91-13.45,12.28-18.11,24.45-16.37,2.71.39,11.5,4.28,9.46,7.79Z"/><path class="cls-1" d="M297.2,459.93c-.81.61-7.76-3.32-11.36-.91-6.11,4.1,8.03,8.77,10.32,10.47,10.32,7.66,4.46,19.98-7.49,20.47-1.61.06-11.96-1.63-12.37-2.1-.8-.94.49-5.4,1.01-6.85,1.48-1.01,14.48,4.06,14.98-1.6.45-5.09-12.43-6.61-15.15-12.91-6.18-14.36,12.59-18.41,21.94-12.1-.89.93-1.66,5.36-1.89,5.53Z"/><path class="cls-1" d="M329.23,451.93v7.01s-8,0-8,0v28.5c0,2.14-9,2.14-9,0v-28.5h-8c-.18-1.41-.25-7,1.5-7h23.5Z"/><path class="cls-1" d="M358.23,568.93c6.51-5.71,14.73-27.98,26.37-21.87,6.45,3.39,3.65,8.74,1.64,6.86-.21-.2-.11-1.94-.96-2.51-6.98-4.62-16.31,12.73-17.06,18.02-.67,4.68,5.4-1.7,6.01-2.51,2.69-3.04,3.8-2.88,2,1-1.79,2.85-3.78,9.3-7.73,9.87-3.25.47-7.09-4.6-6.27-7.88-.1-.15-1.9,1.07-1.99,1.01-.14-.1.42-2.76-2-2Z"/><path class="cls-1" d="M420.23,488.93v-35.5c0-2.09,8-2.1,8,0v34c0,1.93-6.38,1.59-8,1.5Z"/><path class="cls-1" d="M374.23,566.93c2.25-2.97,5.91-12.37,11.28-10.86,5.85,1.64-2.06,8.44-.27,12.85,1.65,1.87,10.13-10.08,11.49-10.98,2.17,1.62,1.16,1.55.29,3.26-1.72,3.42-9.25,13.36-12.77,14.34-5.36,1.5-5.65-9.18-4.03-12.61-1.28.91-3.13,3.63-3.99,4.99.17-2.67.04-2.28-2-1Z"/><path class="cls-1" d="M778.89,534.06c2.47-.83,4.9.18,6.21,2.36l-7.37,9.49c-4.44-1.69-1.88-10.82,1.16-11.85Z"/><path class="cls-1" d="M466.22,537.91c-4.13.57-4.79,5.47-7.49,8-7.68-5.91,3.77-18.46,7.49-8Z"/><path class="cls-1" d="M670.23,553.93c-.17,2.67-.04,2.28,2,1-3.59,7-6.05,10.8-12,16,.24-2.13.13-2.24-2-2,3.48-3.02,10-10.91,12-15Z"/><path class="cls-1" d="M831.23,567.93l8.51-9.99c2.48-.4,1.56,1.73,1.03,3.03-1.07,2.65-2.94,4.02-4.54,5.96l-.5-2c-1.2,2.08-2.84,2.15-4.5,3Z"/><path class="cls-1" d="M337.01,346.59c-18.36,0-33.25,14.89-33.25,33.25s14.89,33.25,33.25,33.25,33.25-14.89,33.25-33.25-14.89-33.25-33.25-33.25ZM336.99,399.43c-10.84,0-19.62-8.78-19.62-19.62s8.78-19.62,19.62-19.62,19.62,8.78,19.62,19.62-8.78,19.62-19.62,19.62Z"/><path class="cls-1" d="M65.73,348.93h-26.5v62h26.5c1.58,0,7.93-2.32,9.85-3.15,27.99-12,19.32-58.85-9.85-58.85ZM53.23,398.93v-38c33.91-5,33.79,42.01,0,38Z"/><path class="cls-1" d="M423.28,355.37c-2.26-2.65-9.24-6.44-12.56-6.44h-30.5v62c2.84-.47,12.16,1.07,13.56-.94,1.61-2.31-.42-19.21.44-20.06h18.5c.44,0,5.97-2.59,6.84-3.16,9.11-5.97,10.43-23.52,3.72-31.4ZM394.23,377.93v-17c7.49.16,19.09-2.2,19.09,8.5s-11.61,8.34-19.09,8.5Z"/><path class="cls-1" d="M512.23,568.92c-1.74-4.32,6.32-11,.28-12.82-6.27-1.89-10.54,10.59-14.61,14.48-1.03.98-2.97,2.31-2.65-.12.83-6.27,7.88-20.67,15.48-19.6,3.09.43,1.37,3.77,4.5,3.06.89-3.85-3-7.63-6.59-7.99-11.68-1.19-19.71,24.15-25.89,23-2.91-.54.62-8.01,1.3-9.68,1.57-3.86,4.27-8.96,6.38-12.62,1.91-3.32,9.24-10.13,4.79-12.23-5.04-2.38-11.86,12.43-13,16.53-5.57-2.24-5.24-5.67-11.88-2.38-10.27,5.09-10.23,19.82-21.1,22.38.67-7.55,5-13.71,8.04-20.42-7.3-6.91-15.51,16.57-14.86,20.72,1.43,9.22,10.95,4.91,14.8-.29,6.88,16.95,13.04-1.92,19-8-2.99,10.61,4.19,17.2,11.51,7,7.95,17.74,13.1.99,19.5-7-5.12,23.96,15.85,6.51,17-5-1.94.37-10.2,13.03-11.98,11ZM479.08,555.26c-.42,1.52-12.47,14.04-14.35,16.65-1.82-1.23-1.2-1.47-1.06-3.01.41-4.59,6.48-15.81,11.29-16.8,2.46-.51,4.95.19,4.13,3.17Z"/><path class="cls-1" d="M602.04,555.24c1.57-2.33,5.24-4.94,1.17-6.85-6.2-2.92-9.98,17.66-17.98,16.53,6.68-12.77,2.5-26.4-12.01-13.5-8.08,7.18-13.07,20.76-25.57,22.42-21.17,2.8-3.86-25.24,4.06-31.93,15.65-13.21,13.42,3.49,3.52,11.01,10.73,3.14,18.56-13.12,8.72-18.2-17.15-8.86-44.68,31.43-27.67,42.66,5.55,3.67,11,2.64,16.65-.25,3.15-1.61,8.19-7.52,9.81-8.2,2.11-.88,1.29,4.32,3.54,6.44,1.21,1.14,4.79,2.65,6.47,2.63,4.17-.04,6.88-5.66,9.51-7.53,1.6-1.13,5.48-2.02,7.46-3.56,1.19,2.29-1.16,4.55-.34,7.3.35,1.18,3.69,3.71,4.37,3.66,1.03-.08,3.53-6.38,4.49-7.95l-.02-1.34c-2.81-.76-2.41-4.07-1.05-6.04.65-.95,1.97-.51,2.07-.62,2.48.51,3.85-1.22,2-3-1.71-.18.45-3.15.81-3.69ZM570.23,573.93c-.4-.27-1.21-7.76,1.47-6.98.82.24,4.51,2.99,4.5,3.48-1.06,1.31-4.17,4.7-5.97,3.5ZM579.08,565.33c-2.15,3.03-7.82-.54-6.11-5.07,1.82-4.82,6.7-5.86,7.11-6.49,1.14-1.75-1.82-4.81,3.14-3.84.53,4.97-1.26,11.34-4.14,15.4Z"/><path class="cls-1" d="M661.23,547.92c-1.17-.84,10.81-10.12,2.45-11.04-4.31-.48-7.51,9.41-9.89,11.17-1.51,1.12-3.75-.99-5.08.85-2.41,3.32,2.47,3.63,2.51,4.53.07,1.31-8.34,11.8-11.49,11.49-.79-2.84-.75-6.46-.38-9.38.6-4.64,5.95-10.28-.85-11.43-5.3-.89-10.21,12.27-13.26,16.31-1.5,1.98-3.47,2.52-4.7,3.8-1.94,2.01-1.92,6.59-7.3,5.7-1.8-5.61,11.02-16.56,7.01-20.52-5.89-5.82-15.34,5.41-19.02,9.52-.78.87-1.24,2.12-2,3-1.98,2.06-.27,4.86,2,3,.9-1.33,10.3-13.79,11.99-11.99-2.29,5.18-12.63,19.54-3.03,22.59,6.03,1.91,9.37-5.58,10.54-5.58,1.11,0,12.06,15.24,17.27,4.26,2.04-4.3-.46-6.27,5.75-8.26,2.58-.83.08,4.29.91,7.02,2.79,9.14,11.71,1.33,15.57-2.04,2.44-3.34,1.35-4.4-2-2-.76.66-3.25,2.59-4,3-1.41.78-2,1.47-4,1-.91-5.28.86-7.83,3-12,.65-1.27,4.57-8.26,4.99-8.51,2.04-1.24,7.53-.02,8.01-.49,1.89-1.87-2.47-5.2-5-4ZM628.94,572.78c-2.4-.37-7.73-5.37-4.2-5.85.29-.04,5.09.98,5.77,1.22,3.12,1.09,2.1,5.2-1.56,4.63ZM632.22,564.93l-5.99-1.49,6.98-10.51-.99,12Z"/><path class="cls-1" d="M251.58,451c-10.76,0-19.48,8.72-19.48,19.48s8.72,19.48,19.48,19.48,19.48-8.72,19.48-19.48-8.72-19.48-19.48-19.48ZM254.5,481.69c-16.15,3.32-18.55-19.41-6.53-22.51,16.5-4.26,19.53,19.84,6.53,22.51Z"/><path class="cls-1" d="M306.43,540.22c-8.11-14.04-42.55-5.14-38,10,.44,1.46,2.12,3.02,3.79,2.71.6-7.79,9.36-11.86,16.01-13.99-4.4,7.86-18.35,28.67-15.8,37.28.62,2.1,3.75,4.03,5.31,1.71.81-1.2,2.73-13.98,4.99-13.99,5.7,6.36,14.93,2.84,20.14-2.38,5.74-5.73,7.74-14.12,3.57-21.35ZM285.3,561.86c-.51-2.01.1-3.77.71-5.66,1.39-4.33,8.6-12.92,9.09-14.99.5-2.13-3.17-4.34,2.39-3.05,15.86,3.68-1.46,27.38-12.19,23.69Z"/><path class="cls-1" d="M408.13,475.39c-.03-1.6,1.88-1.64,2.77-3.26,5.18-9.47,2.02-18.75-9.17-20.2-4.28-.56-10.43,0-15,0-.11,0-1.5,1.39-1.5,1.5v34c0,1.92,6.39,1.6,8,1.5.84-3.53-2.28-12.64,2.5-12.54,8.21.18,6,19.34,18.47,11.04-1.39-3.59-6-8.42-6.07-12.04ZM393.3,468.86c-.43-.49-.43-8.59.86-9.49,2.07-1.44,9.42.2,10.61,2.56,3.8,7.5-9.6,9.06-11.47,6.94Z"/><path class="cls-1" d="M348.73,450.95l-17.5,37.97c2.25-.24,5.26.52,7.33-.15,2.28-.74,2.14-4.27,2.81-4.69.6-.38,13.18-.5,14.23-.21,1.26.35.86,4.35,1.75,4.93,1.16.76,6-.24,7.87.12,1.81-1.85-14.04-33.44-16.5-37.98ZM352.23,477.92c-1.52.06-7.87.51-7.98-1.49-.03-.52,3.69-8.17,4.48-9.5.93,3.81,3.93,6.92,3.5,10.99Z"/><path class="cls-1" d="M280.48,183.17c-11.85-5.02-52.59-6.07-65.81-4.29-1.32.18-4.45,1.28-4.45,2.55v112c0,.75,2.43,2.26,3.53,2.47,2.54.49,19.69.34,21.46-.49.47-.22,2.02-1.81,2.02-1.98v-36.5h30.5c35.48,0,45.26-59.98,12.76-73.76ZM269.13,229.33c-1.55,1.47-7.58,4.6-9.4,4.6h-22.5v-32h22.5c.76,0,6.12,2.17,7.21,2.79,8.23,4.72,8.72,18.42,2.19,24.61Z"/><path class="cls-1" d="M488.73,450.95l-17.5,37.98c2.25-.24,5.26.52,7.33-.15,2.28-.74,2.14-4.27,2.81-4.69.6-.38,13.18-.5,14.23-.22,1.1.3.49,3.49,2.6,4.58,2.16,1.12,5.6.25,8.01.47l-17.5-37.97ZM484.25,476.44c-.04-.64,4.17-7.57,3.99-9.5l4.6,8.92c.54,3.33-8.48,2.48-8.59.58Z"/><path class="cls-1" d="M831.23,567.93c-1.35.68-2.44,2.79-4.99,1.99-2.14-5.64,14.58-20.39,4.44-22-5.49-.87-7.71,3.18-11.44,6.01l-7.5,11.01c-3.04-.16,4.07-10.24,4.5-11.01.7-1.26,2.46-2.22,1.57-4-.78-1.56-3.85-2.72-5.4-1.81-2.26,1.32-6.95,17.65-14.17,16.81,6.26-10.4,3.14-25.43-10.48-14.97-8.97,6.89-9.3,18.22-19.52,20.97-.79-.79,2.74-10.35,3.5-11.99,1.28-2.74,4.11-4.53,4.5-7.56.26-2.02-2.98-2.61-4.3-2.3-4.01.95-12.77,25.17-22.71,22.85-1.32-1.28,6.2-19.24,7.15-19.83,1.26-.78,16.53.4,3.84-4.17-.13-3.71,8.29-8.04,2.99-10.52-4.77-2.24-7.72,7.41-10.45,9.57-1.25.98-6.59,2.24-6.51,3.47.07,1.12,3.37.67,2.86,2.81-3.42,14.39-32.63,31.54-21.75,7.32,1.8-4,5.92-10.52,10.87-9.62.96.71-4.66,8.66-4.99,9.51-1.21,3.06,4.18.7,5.51-.49,6.18-5.54,2.96-15.44-4.52-13.6-10.62,2.61-15.54,22.52-21.49,23.6-2.82.51-1.36-4.83-1.07-6.07.93-3.94,6.16-10.95,6.42-12.63.41-2.62-3.8-4.34-6.43-2.38-3.82,2.85-12.19,21.32-16.92,22.08-2.13.34-1.65-.78-1.32-2.31,1.37-6.26,6.76-11.77,8.38-16.67,1.21-3.64-1.73-5.29-4.58-3.55-2.69,1.65-8.74,14.24-12.03,17.97-1.1,1.26-9.52,9.47-7.78,3.23,2.18-7.78,12.29-14.79-.17-20.19,6.93-6.07-3.6-9.76-5.57-2.53-.68,2.52.45,3.13-1.46,7.02-1.74,3.96-.52,4.31,2,1,.16-.31-.24-.96-.04-1.36,1.05-2.08,4.41-1.34,4.88,1,.71,3.54-10.67,12.58-5.89,20.66,4.88,8.25,13.2-5.24,15.54-5.31,4.94,18.49,13.52-.82,19.5-6.99-3.64,12.93,3.2,17.03,12,7,4.36,14.95,17.83,5.41,25-2-1.59,15.38,12.07,8.12,18,1-.26,2.58,2.27,7.18,4.73,7.85,5.27,1.43,9.27-7.27,11.26-5.85,6.73,16.66,15.79-1.39,25.5-4.01.17,5.27-2.34,8.34,4.02,10.97,3.7-5.73,11.81-22.29,18-24.95,3.87-1.66-1.52,5.41-1.88,6.13-2.23,4.49-6.18,10.91-1.69,15.41,4.93,4.95,12.02-3.87,15.06-7.55,1.44-3.69-.23-3.36-5,1ZM783.23,566.93c.39-.42,4.72,1.9,4.85,2.13,2.16,3.67-7.9,9.65-4.85-2.13ZM791.71,565.94c-2.52,2.43-6.98-1.85-6.08-5.04.26-.93,2.84-4.73,3.65-5.43,2.85-2.49,5.18.25,2.95-5.54h3.99c1.42,1.37-2.82,14.37-4.51,16.01Z"/></svg>