<?xml version="1.0" encoding="UTF-8"?>
<svg id="Layer_1" xmlns="http://www.w3.org/2000/svg" xmlns:xlink="http://www.w3.org/1999/xlink" version="1.1" viewBox="0 0 1000 1000">
  <!-- Generator: Adobe Illustrator 30.0.0, SVG Export Plug-In . SVG Version: 2.1.1 Build 123)  -->
  <defs>
    <style>
      .st0 {
        fill: url(#linear-gradient2);
      }

      .st1 {
        fill: url(#linear-gradient1);
      }

      .st2 {
        fill: url(#linear-gradient3);
      }

      .st3 {
        fill: url(#linear-gradient);
      }
    </style>
    <linearGradient id="linear-gradient" x1="175.9" y1="412.8" x2="801.6" y2="412.8" gradientUnits="userSpaceOnUse">
      <stop offset="0" stop-color="#d8b173"/>
      <stop offset="1" stop-color="#be9a56"/>
    </linearGradient>
    <linearGradient id="linear-gradient1" x1="697.8" y1="412.9" x2="277.6" y2="412.9" xlink:href="#linear-gradient"/>
    <linearGradient id="linear-gradient2" x1="189.2" y1="893.3" x2="318.7" y2="673.8" gradientUnits="userSpaceOnUse">
      <stop offset=".4" stop-color="#d8b173"/>
      <stop offset="1" stop-color="#be9a56"/>
    </linearGradient>
    <linearGradient id="linear-gradient3" x1="825.4" y1="894.3" x2="683" y2="683.5" xlink:href="#linear-gradient2"/>
  </defs>
  <path class="st3" d="M768.1,469.5c3.9-19.5,33.5-36.5,33.5-56.6s-29.5-37.2-33.5-56.6,16.7-46.7,8.8-65.2c-7.5-17.8-41.1-21.5-51.8-37.4s-1.5-48.3-15.2-62-46.2-4.6-62-15.2-19.6-44.2-37.4-51.8c-18.5-7.8-45.7,12.8-65.2,8.8s-36.5-33.5-56.6-33.5-37.2,29.5-56.6,33.5-46.7-16.7-65.2-8.8c-17.8,7.5-21.5,41.1-37.4,51.8s-48.3,1.5-62,15.2-4.5,46.2-15.2,62-44.3,19.6-51.8,37.4c-7.8,18.5,12.8,45.7,8.8,65.2s-33.5,36.5-33.5,56.6,29.5,37.2,33.5,56.6-16.6,46.7-8.8,65.2c7.5,17.8,41.1,21.5,51.8,37.4s1.5,48.3,15.2,62,46.2,4.5,62,15.2,19.6,44.2,37.4,51.8c18.5,7.8,45.7-12.8,65.2-8.8s36.5,33.5,56.6,33.5,37.2-29.5,56.6-33.5,46.7,16.7,65.2,8.8c17.8-7.5,21.5-41.1,37.4-51.8s48.3-1.5,62-15.2,4.5-46.2,15.2-62,44.2-19.6,51.8-37.4c7.8-18.4-12.8-45.7-8.8-65.1ZM651.4,575.5c-89.9,89.9-235.6,89.9-325.4,0-89.9-89.9-89.9-235.6,0-325.4,89.9-89.9,235.6-89.9,325.4,0,43.2,43.2,67.4,101.7,67.4,162.7.2,61.1-24.1,119.7-67.4,162.7Z"/>
  <path class="st1" d="M488.7,202.7c-115.9,0-210.1,94.3-210.1,210.1s94.3,210.2,210.1,210.2,210.1-94.3,210.1-210.2-94.3-210.1-210.1-210.1h0ZM577.3,535.1l-88.6-46.6-88.6,46.6,16.9-98.6-71.7-69.9,99-14.4,44.3-89.8,44.3,89.8,99,14.4-71.6,69.9,16.9,98.6Z"/>
  <path class="st0" d="M391,721.1l-95.2,178.9-51.6-95.5-108.1,10.5,104.1-195.6c1.6,10.3,5,20.6,13.1,28.7,12.7,12.7,30.9,13.8,45.6,14.7,6.6.4,16.5,1,19.4,3s7.2,11,10,16.9c6.3,13.2,14.2,29.7,30.7,36.7,5.5,2.3,11.4,3.4,17.4,3.4,4.9,0,9.7-.7,14.4-1.8Z"/>
  <path class="st2" d="M863.9,815l-108.1-10.5-51.6,95.5-94.8-177.9c3-.5,6-1.4,8.8-2.6,16.5-7,24.4-23.5,30.7-36.7,2.9-6,7.2-15,10-16.9s12.8-2.5,19.4-3c14.7-.9,32.9-2,45.6-14.7s13.8-30.9,14.7-45.6c.4-5.8.9-14.3,2.3-18.1l122.8,230.6Z"/>
</svg>