<?xml version="1.0" encoding="UTF-8"?>
<svg id="Layer_1" xmlns="http://www.w3.org/2000/svg" xmlns:xlink="http://www.w3.org/1999/xlink" version="1.1" viewBox="0 0 50 50">
  <!-- Generator: Adobe Illustrator 30.0.0, SVG Export Plug-In . SVG Version: 2.1.1 Build 123)  -->
  <defs>
    <style>
      .st0 {
        fill: url(#linear-gradient);
        fill-rule: evenodd;
      }
    </style>
    <linearGradient id="linear-gradient" x1="3.8" y1="9.9" x2="39.1" y2="45.3" gradientUnits="userSpaceOnUse">
      <stop offset="0" stop-color="#d8b173"/>
      <stop offset="1" stop-color="#be9a56"/>
    </linearGradient>
  </defs>
  <path class="st0" d="M16.1,5.5v3.4l-4.2-3.4h4.2ZM14.8,10.4h-4.8v-3.9l4.8,3.9ZM10,13.7l4.8,3.9h-4.8v-3.9ZM16.1,12.3v3.9l-4.8-3.9h4.8ZM10,21l4.8,3.9h-4.8v-3.9ZM11.3,19.6h4.8v3.9l-4.8-3.9ZM10,35.5l4.2,3.4h-4.2v-3.4ZM11.3,34.1h4.8v3.9l-4.8-3.9ZM10,28.3l4.8,3.9h-4.8v-3.9ZM16.1,26.8v3.9l-4.8-3.9h4.8ZM40.7,36.2h3.9v6.6h-3.9v-6.6ZM34.5,36.2h3.9v6.6h-3.9v-6.6ZM38.3,27.7v6.6h-3.9v-6.6h3.9ZM40.7,27.7h3.9v6.6h-3.9v-6.6ZM38.9,16.2v6.7h-9.9v24.5h21v-31.1h-11.1ZM0,11.1l1.1,7.1,6.1-.9v21.8H1.1v8.4h23.9v-8.4h-6.1V15.4l13.1-2v1.6h-3.1v6.5h8.2v-6.5h-3.2v-1.9l6.2-.9-1.1-7.1-20.1,3.1V2.7H7.2v7.3L0,11.1Z"/>
</svg>