<?xml version="1.0" encoding="UTF-8"?>
<svg id="Layer_1" xmlns="http://www.w3.org/2000/svg" xmlns:xlink="http://www.w3.org/1999/xlink" version="1.1" viewBox="0 0 1024 1024">
  <!-- Generator: Adobe Illustrator 30.0.0, SVG Export Plug-In . SVG Version: 2.1.1 Build 123)  -->
  <defs>
    <style>
      .st0 {
        fill: url(#linear-gradient2);
      }

      .st1 {
        fill: url(#linear-gradient1);
      }

      .st2 {
        fill: url(#linear-gradient9);
      }

      .st3 {
        fill: url(#linear-gradient3);
      }

      .st4 {
        fill: url(#linear-gradient6);
      }

      .st5 {
        fill: url(#linear-gradient8);
      }

      .st6 {
        fill: url(#linear-gradient7);
      }

      .st7 {
        fill: url(#linear-gradient5);
      }

      .st8 {
        fill: url(#linear-gradient4);
      }

      .st9 {
        fill: url(#linear-gradient13);
      }

      .st10 {
        fill: url(#linear-gradient12);
      }

      .st11 {
        fill: url(#linear-gradient15);
      }

      .st12 {
        fill: url(#linear-gradient11);
      }

      .st13 {
        fill: url(#linear-gradient10);
      }

      .st14 {
        fill: url(#linear-gradient14);
      }

      .st15 {
        fill: url(#linear-gradient);
      }
    </style>
    <linearGradient id="linear-gradient" x1="235.1" y1="609.6" x2="234.9" y2="543.8" gradientUnits="userSpaceOnUse">
      <stop offset="0" stop-color="#d8b173"/>
      <stop offset="1" stop-color="#be9a56"/>
    </linearGradient>
    <linearGradient id="linear-gradient1" x1="419" y1="667.9" x2="414.9" y2="533.1" gradientUnits="userSpaceOnUse">
      <stop offset="0" stop-color="#d8b173"/>
      <stop offset="1" stop-color="#be9a56"/>
    </linearGradient>
    <linearGradient id="linear-gradient2" x1="450.5" y1="838.4" x2="450.6" y2="721.5" xlink:href="#linear-gradient1"/>
    <linearGradient id="linear-gradient3" x1="586.2" y1="835.4" x2="591.1" y2="707.9" xlink:href="#linear-gradient1"/>
    <linearGradient id="linear-gradient4" x1="676.3" y1="831.8" x2="677.2" y2="750.2" gradientUnits="userSpaceOnUse">
      <stop offset="0" stop-color="#d8b173"/>
      <stop offset="1" stop-color="#be9a56"/>
    </linearGradient>
    <linearGradient id="linear-gradient5" x1="246.3" y1="299.7" x2="242.6" y2="475.5" xlink:href="#linear-gradient4"/>
    <linearGradient id="linear-gradient6" x1="347.1" y1="189.8" x2="349.1" y2="274.5" xlink:href="#linear-gradient1"/>
    <linearGradient id="linear-gradient7" x1="433.2" y1="182.5" x2="433.2" y2="310.3" xlink:href="#linear-gradient1"/>
    <linearGradient id="linear-gradient8" x1="414.7" y1="344.5" x2="414.7" y2="491" xlink:href="#linear-gradient1"/>
    <linearGradient id="linear-gradient9" x1="573.6" y1="211.3" x2="573.6" y2="304.4" xlink:href="#linear-gradient1"/>
    <linearGradient id="linear-gradient10" x1="606.6" y1="658.5" x2="608.9" y2="547.9" xlink:href="#linear-gradient1"/>
    <linearGradient id="linear-gradient11" x1="611.1" y1="349.8" x2="608" y2="489.3" xlink:href="#linear-gradient1"/>
    <linearGradient id="linear-gradient12" x1="779.9" y1="740.3" x2="779.9" y2="539.7" gradientUnits="userSpaceOnUse">
      <stop offset="0" stop-color="#d8b173"/>
      <stop offset="1" stop-color="#be9a56"/>
    </linearGradient>
    <linearGradient id="linear-gradient13" x1="789" y1="396.4" x2="789" y2="491.6" xlink:href="#linear-gradient1"/>
    <linearGradient id="linear-gradient14" x1="776" y1="330.3" x2="782" y2="139.2" xlink:href="#linear-gradient1"/>
    <linearGradient id="linear-gradient15" x1="248.9" y1="718.5" x2="238.7" y2="905.3" xlink:href="#linear-gradient1"/>
  </defs>
  <path class="st15" d="M302.4,528c.8,38.5,4.6,76.1,11.3,112.1-21.7-8.3-45.1-12.5-69-12.5h-5.3c-.6,0-1.2,0-1.7,0-.5,0-1,0-1.5,0-.9,0-1.7,0-2.6,0s-1.3,0-2,0-1.7,0-2.6.2c-.8,0-1.5,0-2.3.2-1,0-2.1.2-3.1.3-1.4,0-2.8.3-4.2.5-.7,0-1.3.2-2,.3-3.9.5-7.8,1.2-11.7,2-.7.2-1.5.3-2.2.5-2.7.6-5.3,1.2-8,1.9-.7.2-1.4.4-2.1.6-.6.2-1.2.3-1.8.5-1.1.3-2.3.7-3.4,1-.7.2-1.4.5-2.2.7-2.4.8-4.8,1.6-7.1,2.4-13.5-35.5-21-72.7-22.6-111h146.1Z"/>
  <path class="st1" d="M497.1,528v140.6c-38.2,1.4-75.7,8.5-111.5,20.9-.1,0-.2-.3-.4-.4-.7-.8-1.4-1.6-2.1-2.4-.1,0-.2-.2-.3-.3-.6-.7-1.3-1.4-2-2.1-.3-.3-.6-.6-.9-.9-.7-.8-1.5-1.5-2.3-2.3-.9-.9-1.8-1.8-2.7-2.6s-1.8-1.7-2.7-2.5c-.1,0-.2-.2-.3-.3-.9-.8-1.7-1.6-2.6-2.3-1.9-1.7-3.8-3.3-5.8-4.9-.4-.3-.8-.7-1.3-1-.7-.6-1.5-1.2-2.2-1.7-.9-.7-1.9-1.4-2.8-2.1-.6-.5-1.3-.9-1.9-1.4-.5-.4-1-.7-1.5-1.1-.6-.4-1.2-.9-1.8-1.3s-1.1-.8-1.7-1.1c-.4-.3-.8-.5-1.1-.8-.4-.3-.8-.5-1.3-.8-9.3-41-14.5-84.3-15.5-129.2h164.7Z"/>
  <path class="st0" d="M497.1,867.9c-25.8-4.4-51-20.2-73.9-46.3,0-.2.1-.4.1-.5.2-.9.3-1.8.5-2.7v-.2c.2-1.1.3-2.2.5-3.3h0c.2-1.2.3-2.4.4-3.5.1-.8.2-1.7.3-2.5.1-.5.1-1,.1-1.5.1-.8.1-1.6.2-2.4,0-.4.1-.8.1-1.3s.1-1.3.1-1.9,0-.7.1-1c0-1,.1-2,.1-3v-9.1c0-.8-.1-1.6-.1-2.3v-.5c0-.7-.1-1.4-.1-2.1-.1-2.2-.3-4.4-.6-6.6-.1-.7-.2-1.4-.3-2.2-.2-1.2-.3-2.5-.5-3.7-.2-1-.3-2-.5-3s-.4-2.1-.6-3.1c-.1-.8-.3-1.6-.5-2.4-.1-.6-.3-1.2-.4-1.8-.1-.3-.1-.7-.2-1-.1-.6-.3-1.2-.4-1.7,0-.2-.1-.3-.1-.5-.2-.7-.3-1.5-.5-2.2-.2-.8-.4-1.7-.7-2.5-.1-.5-.3-.9-.4-1.4-.2-.6-.3-1.1-.5-1.7-.1-.3-.2-.6-.3-.9-.2-.5-.3-1.1-.5-1.6s-.3-1.1-.5-1.6c-.2-.8-.5-1.5-.7-2.2-.3-1-.7-2-1.1-3s-.8-2-1.1-3c-.3-.8-.7-1.7-1-2.5-.1-.3-.2-.5-.3-.8-.3-.9-.7-1.7-1.1-2.6-.4-1-.9-1.9-1.3-2.9h0c-.4-1.1-.9-2.1-1.4-3-.4-.8-.8-1.7-1.3-2.5-.1-.2-.2-.5-.4-.7-.4-.8-.9-1.7-1.4-2.5-.5-1-1-1.9-1.6-2.8-.4-.8-.9-1.5-1.3-2.3,30.1-9.6,61.3-15.1,93.1-16.4v169.2Z"/>
  <path class="st3" d="M527.1,867.9v-169.3c44.4,1.8,87.2,11.7,127.6,29.4-31.2,80.5-77.7,131.3-127.6,139.9Z"/>
  <path class="st8" d="M743.4,783.7c-.5.4-1,.9-1.5,1.3-1.2,1-2.3,2-3.5,3s-2.4,1.9-3.6,2.9-2.4,1.9-3.6,2.8c-1.7,1.4-3.5,2.7-5.3,4-.5.4-1.1.8-1.7,1.3-1.1.8-2.1,1.6-3.3,2.4h0c-.7.5-1.3.9-2,1.4-.3.2-.7.5-1,.7l-.3.2c-1.3.9-2.4,1.7-3.5,2.5-.5.4-1.1.8-1.6,1.1-.3.2-.5.4-.8.5-.3.2-.5.4-.8.5-2.8,1.9-5.6,3.7-8.4,5.5-.3.2-.6.4-.9.6s-.6.4-1,.6c-5.5,3.5-11,6.7-16.7,9.8-.9.5-1.8,1-2.6,1.4-1,.6-2.1,1.1-3.2,1.7-8.6,4.6-17.4,8.7-26.3,12.5-.2,0-.4.2-.6.3-1.8.7-3.5,1.5-5.3,2.2q0,0-.2,0c0,0-.2,0-.3,0-1.1.4-2.2.9-3.2,1.3-1.3.5-2.7,1.1-4.2,1.6l-3.4,1.3c-.3,0-.7.2-1,.4-1.1.4-2.3.8-3.4,1.2s-2.1.7-3.2,1.1c-1.7.6-3.3,1.1-5,1.7-1.2.4-2.5.8-3.7,1.2-.9.3-1.8.6-2.7.8-1.6.5-3.2,1-4.8,1.4-.4,0-.8.2-1.2.4,2.2-2.1,4.4-4.3,6.6-6.6,25.5-26.7,47.9-63.7,65.3-107.7,22.3,12,43,26.2,62,42.5Z"/>
  <path class="st7" d="M258.5,262.9c22.5,19.6,47.2,36.5,73.5,50.4-18.1,55.8-28.3,119.1-29.6,184.7h-146.2c2.7-65.5,23.2-128.4,59.7-182.9,12.4-18.7,26.8-36.2,42.6-52.2Z"/>
  <path class="st4" d="M342.3,284.8c-22-11.9-42.6-26.2-61.7-42.5,1-.9,2-1.7,3-2.5.6-.6,1.3-1.1,2-1.6.6-.5,1.2-1,1.8-1.5,1.3-1,2.5-2,3.8-3,.7-.6,1.4-1.1,2.2-1.7.7-.6,1.5-1.1,2.2-1.7.7-.5,1.4-1.1,2.1-1.6,1-.8,2-1.5,3-2.2.9-.7,1.8-1.3,2.7-2,.4-.3.8-.6,1.2-.9.8-.6,1.6-1.2,2.4-1.7.2-.1.4-.3.6-.4.9-.7,1.9-1.3,2.8-2,2.4-1.7,4.9-3.3,7.4-4.9,1-.7,2.1-1.3,3.1-2,5.7-3.6,11.5-7.1,17.4-10.4.6-.4,1.3-.7,1.9-1.1.8-.4,1.6-.9,2.5-1.3,1.2-.7,2.4-1.3,3.7-2,1.2-.6,2.4-1.3,3.6-1.9h.1l3.6-1.8,3-1.5c1.7-.8,3.3-1.6,5-2.4l2.7-1.2c10-4.6,20.2-8.7,30.6-12.3,1-.3,2-.7,2.9-1,.3-.1.6-.2,1-.3,1.2-.4,2.3-.8,3.5-1.1.8-.3,1.6-.5,2.5-.8.8-.2,1.5-.5,2.3-.7,1.1-.3,2.1-.7,3.2-1,.9-.3,1.8-.5,2.8-.8.4-.1.7-.2,1.1-.3-2.2,2.1-4.4,4.3-6.6,6.6-25.7,26.5-48.1,63.5-65.4,107.5h0Z"/>
  <path class="st6" d="M497.1,158.1v169.3c-44.5-1.8-87.3-11.7-127.8-29.4,31.2-80.6,77.7-131.4,127.8-139.9h0Z"/>
  <path class="st5" d="M359.3,326.4c43.7,18.9,89.9,29.3,137.7,31.1v140.5h-164.6c1.3-61,10.5-119.7,26.9-171.6Z"/>
  <path class="st2" d="M527.1,327.4v-169.3c25.7,4.4,50.9,20.2,73.7,46.2-.2,1.1-.4,2.2-.6,3.4,0,.9-.3,1.9-.4,2.8,0,.4,0,.8-.2,1.1-.2,1.7-.4,3.5-.6,5.2,0,.5,0,1.1,0,1.6,0,.8,0,1.6-.2,2.4,0,.4,0,.8,0,1.1,0,.7,0,1.4,0,2.1s0,.6,0,.9c0,1,0,2,0,3v6.5c0,.8,0,1.7,0,2.5,0,.6,0,1.2,0,1.8,0,.5,0,1.1,0,1.7v.6c0,.7,0,1.5.2,2.2,0,.4,0,.8,0,1.3v.5c0,.8,0,1.5.2,2.2,0,1,.2,1.9.3,2.8,0,1,.2,1.9.4,2.9,0,.2,0,.3,0,.4,0,.9.3,1.8.4,2.7.1.9.3,1.8.5,2.7,0,.2,0,.5,0,.7,0,.8.3,1.6.5,2.3.4,2,.8,3.9,1.3,5.9,0,.6.3,1.2.4,1.7,0,.4.2.8.3,1.1.2.7.4,1.3.5,2,0,.1,0,.2,0,.3.2.8.4,1.6.7,2.4.2.8.5,1.7.8,2.5.5,1.7,1.1,3.5,1.7,5.2.3.9.7,1.9,1,2.8.4,1.1.8,2.1,1.2,3.2.3.9.7,1.7,1.1,2.6s.7,1.8,1.1,2.6c.4,1,.9,2,1.4,3,.4.9.9,1.9,1.3,2.8s.9,1.7,1.3,2.6c0,.2.2.3.2.5.4.8.8,1.6,1.3,2.5h0c.4.9.9,1.7,1.3,2.6,0,.1,0,.2.2.3.4.8.9,1.5,1.3,2.3,0,.2.2.3.3.5-30.1,9.5-61.3,15-93.1,16.3h0Z"/>
  <path class="st13" d="M527.1,528h164.5c-1.3,61-10.5,119.7-26.9,171.6-43.6-18.9-89.8-29.3-137.6-31.1v-140.5Z"/>
  <path class="st12" d="M680.4,389.3c6.6,34.9,10.4,71.3,11.2,108.7h-164.5v-140.6c33.9-1.3,67.2-7,99.3-17l-8.6,62.1,62.6-13.2Z"/>
  <path class="st10" d="M721.6,528h146.3c-2.7,65.4-23.2,128.4-59.7,182.9-12.5,18.7-26.8,36.2-42.7,52.3-22.5-19.6-47.2-36.5-73.5-50.4,18.1-55.9,28.3-119.2,29.6-184.8h0Z"/>
  <path class="st9" d="M721.6,498c-.8-38.5-4.6-76.2-11.3-112.3,21.9,8.3,45,12.5,69,12.5h7.1c.5,0,1,0,1.5-.1.9,0,1.7-.1,2.6-.1s1.3-.1,2-.1,1.2-.1,1.9-.1,1.3-.1,1.9-.2c2.2-.2,4.4-.4,6.6-.7.9-.1,1.7-.2,2.6-.3,1.2-.1,2.3-.3,3.4-.5,1.4-.2,2.8-.4,4.1-.7,1.9-.3,3.7-.7,5.6-1.1.7-.1,1.4-.3,2.1-.4.8-.2,1.7-.4,2.5-.6,1.7-.4,3.3-.8,5-1.2l2.4-.6c1.7-.5,3.3-.9,5-1.4.8-.2,1.6-.5,2.4-.8.7-.2,1.4-.4,2-.7,1-.3,1.9-.6,2.9-1,.8-.3,1.5-.5,2.2-.8,13.5,35.6,21.1,72.9,22.7,111.2h-146.2Z"/>
  <path class="st14" d="M779.3,94.8c-56.6,0-107.9,28.3-134,73.8l-.3.4c-6.1,10.8-10.6,22.2-13.4,34.1,0,.1,0,.3,0,.4-2.1,9.1-3.2,18.5-3.2,28,0,28.1,9.3,55.1,27,78l.5.7,4.2,5.4-6.8,48.6,50.2-10.7,5.2-1.1,4.4,2c20.7,9.1,42.9,13.8,66,13.8s46.8-4.9,67.9-14.6c51.2-23.4,83-70.2,83-122.1.3-75.3-67.4-136.7-150.6-136.7h0ZM726.6,246.7h-34v-30h34v30ZM796.3,246.7h-34v-30h34v30ZM865.9,246.7h-34v-30h34v30Z"/>
  <path class="st11" d="M368.8,716.3c-11.2-14.6-25.2-27-41.7-36.7-24.5-14.5-52.9-22.1-82.3-22.1s-46.8,4.9-68,14.7c-51.1,23.4-82.9,70.2-82.9,122,0,75.4,67.7,136.7,150.9,136.7s45.4-4.6,66-13.7l4.4-2,55.4,11.8-6.8-48.7,3.9-5c4.1-5.2,7.8-10.8,11.1-16.5,2.3-4,4.4-8.1,6.2-12.3.1-.3.2-.5.3-.8.2-.4.3-.8.5-1.2,1-2.3,1.9-4.6,2.7-7,.5-1.5,1-2.9,1.4-4.4.9-2.9,1.7-5.9,2.4-8.9.3-1.2.5-2.3.8-3.5.2-1,.4-2,.6-3.1,1.3-7.1,1.9-14.3,1.9-21.6.1-27.8-9.2-54.7-26.8-77.7h0ZM192.1,809.3h-34v-30h34v30ZM261.8,809.3h-34v-30h34v30ZM331.5,809.3h-34v-30h34v30Z"/>
</svg>