<?xml version="1.0" encoding="UTF-8"?>
<svg id="Layer_1" xmlns="http://www.w3.org/2000/svg" xmlns:xlink="http://www.w3.org/1999/xlink" version="1.1" viewBox="0 0 510 510">
  <!-- Generator: Adobe Illustrator 30.0.0, SVG Export Plug-In . SVG Version: 2.1.1 Build 123)  -->
  <defs>
    <style>
      .st0 {
        fill: url(#linear-gradient);
        fill-rule: evenodd;
      }
    </style>
    <linearGradient id="linear-gradient" x1="255" y1="-18.4" x2="255" y2="461.6" gradientUnits="userSpaceOnUse">
      <stop offset="0" stop-color="#d8b173"/>
      <stop offset="1" stop-color="#be9a56"/>
    </linearGradient>
  </defs>
  <path class="st0" d="M281.2,424.3H15V15.9h256.1v51.1c0,4.4,3.6,7.9,7.9,7.9h51.1v208.2c-3.1-1.4-7.2-3.2-7.2-3.2-6-2.7-13-1.4-17.7,3.3l-21.2,21.2c-4.6,4.6-5.9,11.7-3.3,17.7l4.8,10.7c-2.7,5.3-5,10.9-6.9,16.6,0,0-10.9,4.2-10.9,4.2-6.1,2.4-10.2,8.2-10.2,14.8v30c0,6.6,4,12.5,10.2,14.8l10.9,4.2c.8,2.4,1.6,4.7,2.5,7h0ZM181.4,175.8h56.8c4.4,0,7.9-3.6,7.9-7.9s-3.6-7.9-7.9-7.9h-56.8c-4.4,0-7.9,3.6-7.9,7.9s3.6,7.9,7.9,7.9ZM181.4,244.1h87.3c4.4,0,7.9-3.6,7.9-7.9s-3.6-7.9-7.9-7.9h-87.3c-4.4,0-7.9,3.6-7.9,7.9s3.6,7.9,7.9,7.9ZM181.4,148.2h87.3c4.4,0,7.9-3.6,7.9-7.9s-3.6-7.9-7.9-7.9h-87.3c-4.4,0-7.9,3.6-7.9,7.9s3.6,7.9,7.9,7.9ZM181.4,340.1h87.3c4.4,0,7.9-3.6,7.9-7.9s-3.6-7.9-7.9-7.9h-87.3c-4.4,0-7.9,3.6-7.9,7.9s3.6,7.9,7.9,7.9ZM181.4,367.7h56.8c4.4,0,7.9-3.6,7.9-7.9s-3.6-7.9-7.9-7.9h-56.8c-4.4,0-7.9,3.6-7.9,7.9s3.6,7.9,7.9,7.9ZM78.7,120.4c-3.8,0-7,3.1-7,7v53.3c0,3.8,3.1,7,7,7h53.3c3.8,0,7-3.1,7-7v-53.3c0-3.8-3.1-7-7-7h-53.3ZM85.5,158.3c-3.1-3.1-3.1-8.1,0-11.2,3.1-3.1,8.1-3.1,11.2,0l5.5,5.4,11.1-13.8c2.8-3.4,7.8-3.9,11.2-1.2s3.9,7.8,1.2,11.2l-16.7,20.6c-1.4,1.7-3.5,2.8-5.7,2.9-2.2.1-4.4-.7-6-2.3l-11.7-11.7ZM78.7,216.4c-3.8,0-7,3.1-7,7v53.3c0,3.8,3.1,7,7,7h53.3c3.8,0,7-3.1,7-7v-53.3c0-3.8-3.1-7-7-7h-53.3ZM85.5,254.2c-3.1-3.1-3.1-8.1,0-11.2s8.1-3.1,11.2,0l5.5,5.5,11.1-13.8c2.8-3.4,7.8-3.9,11.2-1.2,3.4,2.8,3.9,7.8,1.2,11.2l-16.7,20.6c-1.4,1.7-3.5,2.8-5.8,2.9-2.2.1-4.4-.7-6-2.3l-11.7-11.7ZM78.7,312.4c-3.8,0-7,3.2-7,7v53.3c0,3.8,3.1,7,7,7h53.3c3.8,0,7-3.1,7-7v-53.3c0-3.8-3.1-7-7-7h-53.3ZM85.5,350.2c-3.1-3.1-3.1-8.1,0-11.2,3.1-3.1,8.1-3.1,11.2,0l5.5,5.4,11.1-13.8c2.8-3.4,7.8-3.9,11.2-1.2,3.4,2.8,3.9,7.8,1.2,11.2l-16.7,20.6c-1.4,1.7-3.5,2.8-5.7,2.9-2.2.1-4.4-.7-6-2.3l-11.7-11.7ZM181.4,271.7h56.8c4.4,0,7.9-3.6,7.9-7.9s-3.6-7.9-7.9-7.9h-56.8c-4.4,0-7.9,3.6-7.9,7.9s3.6,7.9,7.9,7.9ZM71.7,74.9h150.9c4.4,0,7.9-3.6,7.9-7.9s-3.6-7.9-7.9-7.9H71.7c-4.4,0-7.9,3.6-7.9,7.9s3.6,7.9,7.9,7.9ZM287,23.8l35.2,35.2h-35.2V23.8ZM406.3,290.9c9.8,2.3,19.1,6.2,27.7,11.5l18-8,21.2,21.2-8,18c5.3,8.6,9.1,17.9,11.5,27.7l18.4,7.1v30l-18.4,7.1c-2.3,9.8-6.2,19.1-11.5,27.7l8,18-21.2,21.2-18-8c-8.5,5.3-17.9,9.1-27.7,11.5l-7.1,18.4h-30l-7.1-18.4c-9.8-2.3-19.1-6.2-27.7-11.5l-18,8-21.2-21.2,8-18c-5.3-8.5-9.1-17.9-11.5-27.7l-18.4-7.1v-30l18.4-7.1c2.4-9.8,6.2-19.1,11.5-27.7l-8-18,21.2-21.2,18,8c8.6-5.3,17.9-9.1,27.7-11.5l7.1-18.4h30l7.1,18.4ZM384.2,331c-28.9,0-52.3,23.4-52.3,52.3s23.4,52.3,52.3,52.3,52.3-23.4,52.3-52.3-23.4-52.3-52.3-52.3ZM411.5,390.8c3.8,2.2,5.1,7,2.9,10.8-2.2,3.8-7,5.1-10.8,2.9l-23.3-13.5c-2.5-1.4-4-4-4-6.9v-26.9c0-4.4,3.6-7.9,7.9-7.9s7.9,3.6,7.9,7.9v22.3l19.4,11.2Z"/>
</svg>