<?xml version="1.0" encoding="UTF-8"?>
<svg id="Layer_1" xmlns="http://www.w3.org/2000/svg" xmlns:xlink="http://www.w3.org/1999/xlink" version="1.1" viewBox="0 0 512 512">
  <!-- Generator: Adobe Illustrator 30.0.0, SVG Export Plug-In . SVG Version: 2.1.1 Build 123)  -->
  <defs>
    <style>
      .st0 {
        fill: url(#linear-gradient1);
      }

      .st1 {
        fill: url(#linear-gradient);
      }
    </style>
    <linearGradient id="linear-gradient" x1="196.5" y1="165.3" x2="196.5" y2="477.4" gradientUnits="userSpaceOnUse">
      <stop offset="0" stop-color="#d8b173"/>
      <stop offset="1" stop-color="#be9a56"/>
    </linearGradient>
    <linearGradient id="linear-gradient1" x1="355.2" y1="29.3" x2="355.2" y2="262.1" xlink:href="#linear-gradient"/>
  </defs>
  <path class="st1" d="M279.4,247.6v20.4H113.6v-35.1h144.8c-18.8-15.7-33.8-35.8-43.2-58.8h-101.5v-35.1h91.8c-2.8-19-2.1-38.6,2.3-57.4H40.5v430.4h312.1v-244c-26.6-.5-51.5-7.8-73.1-20.4h0ZM279.4,454.6H113.6v-35.1h165.8v35.1ZM279.4,360.7H113.6v-35.1h165.8v35.1Z"/>
  <path class="st0" d="M355.2,0c-64.2,0-116.3,52.2-116.3,116.4s52.2,116.4,116.3,116.4,116.3-52.2,116.3-116.4S419.3,0,355.2,0ZM400.9,159.1l-53.6-27c-5.9-3-9.7-9.1-9.7-15.7V23.3h35.1v82.3l43.9,22.1-15.8,31.4Z"/>
</svg>