<?xml version="1.0" encoding="UTF-8"?>
<svg id="Capa_1" xmlns="http://www.w3.org/2000/svg" xmlns:xlink="http://www.w3.org/1999/xlink" version="1.1" viewBox="0 0 512 512">
  <!-- Generator: Adobe Illustrator 30.0.0, SVG Export Plug-In . SVG Version: 2.1.1 Build 123)  -->
  <defs>
    <style>
      .st0 {
        fill: url(#linear-gradient2);
      }

      .st1 {
        fill: url(#linear-gradient1);
      }

      .st2 {
        fill: url(#linear-gradient3);
      }

      .st3 {
        fill: url(#linear-gradient);
      }
    </style>
    <linearGradient id="linear-gradient" x1="22" y1="256" x2="372.5" y2="256" gradientUnits="userSpaceOnUse">
      <stop offset="0" stop-color="#d8b173"/>
      <stop offset="1" stop-color="#be9a56"/>
    </linearGradient>
    <linearGradient id="linear-gradient1" x1="69.7" y1="28.6" x2="20" y2="27.9" xlink:href="#linear-gradient"/>
    <linearGradient id="linear-gradient2" x1="344.6" y1="353.5" x2="430.5" y2="353.5" xlink:href="#linear-gradient"/>
    <linearGradient id="linear-gradient3" x1="285.1" y1="491.8" x2="490" y2="491.8" xlink:href="#linear-gradient"/>
  </defs>
  <path class="st3" d="M255.1,441.7h84.5l-11.8-59.5H67.7v-30h254.1s-6.8-34.9-7-37.5H67.7v-30h250.7c2.8-8.2,7.1-15.9,12.7-22.8,10.7-13,25.3-21.7,41.4-25.1V0H101.7v86.5H22v425.5h233.1v-70.3h0ZM158.3,104.3l26.4,26.4,66.8-66.8,21.2,21.2-88,88-47.6-47.6,21.2-21.2ZM67.7,217.3h258.6v30H67.7v-30Z"/>
  <path class="st1" d="M22,56.5h49.7V0L22,56.5Z"/>
  <path class="st0" d="M354.3,281c-8.2,10-11.5,23-8.9,35.6l24.8,125h34.8l24.8-125c2.5-12.7-.8-25.6-8.9-35.6-8.2-10-20.3-15.7-33.2-15.7s-25,5.7-33.2,15.7Z"/>
  <path class="st2" d="M285.1,471.7h205v40.3h-205v-40.3Z"/>
</svg>