<?xml version="1.0" encoding="UTF-8"?>
<svg id="Layer_1" xmlns="http://www.w3.org/2000/svg" xmlns:xlink="http://www.w3.org/1999/xlink" version="1.1" viewBox="0 0 24 24">
  <!-- Generator: Adobe Illustrator 30.0.0, SVG Export Plug-In . SVG Version: 2.1.1 Build 123)  -->
  <defs>
    <style>
      .st0 {
        fill: url(#linear-gradient);
      }

      .st0, .st1, .st2, .st3 {
        fill-rule: evenodd;
      }

      .st1 {
        fill: url(#linear-gradient1);
      }

      .st2 {
        fill: url(#linear-gradient2);
      }

      .st3 {
        fill: url(#linear-gradient3);
      }
    </style>
    <linearGradient id="linear-gradient" x1="8.7" y1="4" x2="22.3" y2="4" gradientUnits="userSpaceOnUse">
      <stop offset="0" stop-color="#d8b173"/>
      <stop offset="1" stop-color="#be9a56"/>
    </linearGradient>
    <linearGradient id="linear-gradient1" x1="10.5" y1="12.5" x2="21" y2="12.5" xlink:href="#linear-gradient"/>
    <linearGradient id="linear-gradient2" x1="3" y1="15" x2="12.5" y2="15" xlink:href="#linear-gradient"/>
    <linearGradient id="linear-gradient3" x1="2" y1="22" x2="22" y2="22" xlink:href="#linear-gradient"/>
  </defs>
  <path class="st0" d="M8.7,3l13,4,.6-1.9L9.3,1l-.6,1.9Z"/>
  <path class="st1" d="M10.9,2.2c-.3.2-.4.5-.4.8v19c0,.6.4,1,1,1h8.5c.6,0,1-.4,1-1V5.5c0-.4-.3-.8-.7-1l-8.5-2.5c-.3,0-.6,0-.9.2ZM13,16c0-.6.4-1,1-1h3.5c.6,0,1,.4,1,1v6c0,.6-.4,1-1,1h-3.5c-.6,0-1-.4-1-1v-6ZM17,9h-2.5v-2h2.5v2ZM14.5,12h2.5v-2h-2.5v2Z"/>
  <path class="st2" d="M12.1,7.2c.3.2.4.5.4.8v14c0,.6-.4,1-1,1h-7.5c-.6,0-1-.4-1-1v-11.5c0-.4.3-.8.7-.9l7.5-2.5c.3-.1.6,0,.9.1ZM6.5,14h2.5v-2h-2.5v2Z"/>
  <path class="st3" d="M2,21h20v2H2v-2Z"/>
</svg>