<?xml version="1.0" encoding="UTF-8"?>
<svg id="Layer_1" xmlns="http://www.w3.org/2000/svg" xmlns:xlink="http://www.w3.org/1999/xlink" version="1.1" viewBox="0 0 300 300">
  <!-- Generator: Adobe Illustrator 30.0.0, SVG Export Plug-In . SVG Version: 2.1.1 Build 123)  -->
  <defs>
    <style>
      .st0 {
        fill: url(#linear-gradient2);
      }

      .st1 {
        fill: url(#linear-gradient1);
      }

      .st2 {
        fill: url(#linear-gradient3);
      }

      .st3 {
        fill: url(#linear-gradient5);
      }

      .st4 {
        fill: url(#linear-gradient4);
      }

      .st5 {
        fill: url(#linear-gradient);
      }
    </style>
    <linearGradient id="linear-gradient" x1="150" y1="22.9" x2="150" y2="97.1" gradientUnits="userSpaceOnUse">
      <stop offset="0" stop-color="#d8b173"/>
      <stop offset="1" stop-color="#be9a56"/>
    </linearGradient>
    <linearGradient id="linear-gradient1" x1="179.5" y1="175.2" x2="187.3" y2="175.2" xlink:href="#linear-gradient"/>
    <linearGradient id="linear-gradient2" x1="173.5" y1="173.1" x2="181.2" y2="173.1" xlink:href="#linear-gradient"/>
    <linearGradient id="linear-gradient3" x1="104.2" y1="247" x2="118" y2="247" xlink:href="#linear-gradient"/>
    <linearGradient id="linear-gradient4" x1="185.4" y1="177.4" x2="193.2" y2="177.4" xlink:href="#linear-gradient"/>
    <linearGradient id="linear-gradient5" x1="149.1" y1="172.1" x2="149.1" y2="391.3" xlink:href="#linear-gradient"/>
  </defs>
  <path class="st5" d="M292.5,139.2l-40.2-36.9V38.3c0-2.1-1.7-3.7-3.7-3.7h-34.1c-2.1,0-3.7,1.7-3.7,3.7v25.9l-51.3-47c-5.4-4.9-13.6-4.9-18.9,0L7.5,139.2c-5.1,4.6-1.8,13.1,5.1,13.1h20.1l117.3-109.6,117.3,109.5h20.1c6.9.1,10.2-8.4,5.1-13h0Z"/>
  <path class="st1" d="M186,168.7c-1-.4-2.2.1-2.6,1.1l-3.8,9.3c-.4,1,.1,2.2,1.1,2.6s2.2-.1,2.6-1.1l3.8-9.3c.5-1,0-2.2-1.1-2.6Z"/>
  <path class="st0" d="M180,166.6c-1-.4-2.2.1-2.6,1.1l-3.8,9.3c-.4,1,.1,2.2,1.1,2.6s2.2-.1,2.6-1.1l3.8-9.3c.4-1-.1-2.1-1.1-2.6Z"/>
  <circle class="st2" cx="111.1" cy="247" r="6.9"/>
  <path class="st4" d="M191.9,170.9c-1-.4-2.2.1-2.6,1.1l-3.8,9.3c-.4,1,.1,2.2,1.1,2.6s2.2-.1,2.6-1.1l3.8-9.3c.5-1,0-2.2-1.1-2.6Z"/>
  <path class="st3" d="M253.8,256.9h-1.9c0-.4.1-.8.1-1.2v-102.4l-102-95.3-102,95.3v102.4c0,.4,0,.8,0,1.2h-3.8c-2.7,0-4.8,2.2-4.8,4.8v19.8c0,2.7,2.2,4.8,4.8,4.8h209.6c2.7,0,4.8-2.2,4.8-4.8v-19.8c0-2.6-2.2-4.8-4.9-4.8h0ZM193.4,138.6l-8.7,18.5h0c0,.1-16-6.3-16-6.3,0,0,9.6-11.1,24.7-12.2h0ZM95.7,185.1c-.3,1.3-.5,2.7-.6,4.1l-8.8,8.8c-.7.7-1.5,1-2.4,1s-1.7-.3-2.4-1l-14.7-14.7c-1.3-1.3-1.3-3.5,0-4.8l8.8-8.8s6.2-1.1,9.4-4.4,4.6-9.6,4.6-9.6c0,0,14.7-13.7,21.8-16.7,1.5-.6,3.7-.9,6.2-.9,7.5,0,18.4,2.5,27.8,5.7,1.4.5,1.1,2.5-.4,2.5-8.4.5-23.3,1.4-25.8,7.3-1.1,2.6,4.3,10,7.8,14.3.5.6.8,1.3.9,2l-13.5,13.5.5-.5c-.7-.1-1.5-.5-2.1-1l-2.8-2.5h0c-1.4-1.3-3-1.8-4.7-1.8-4.2.1-8.6,3.2-9.5,7.5h0ZM119.5,255.9c-4.7,5-12.7,5.1-17.5.3-4.9-4.9-4.8-12.8.2-17.5l26.9-25.1,15.6,15.6-25.2,26.7ZM202.8,251.2l-7.3,7.3c-.9.9-2,1.3-3.1,1.3s-2.3-.4-3.1-1.3l-67.3-67.3,13.5-13.5,67.2,67.3c1.8,1.7,1.8,4.5.1,6.2h0ZM217.2,179.4c-6,10.5-16.5,14.1-25.4,15-8,.8-13.4,1.1-18.9,5.2l-14.3-14.3c4-5.2,5.6-11.1,6.7-18.1l.4-2.2-8-3.1c-.6-.2-.9-.9-.7-1.5l1-2.7,4.8-2.6,21.9,8.4,16.4,6.4,5.8-2.1,8.8-19.2c.1.1,12,12.3,1.5,30.8h0Z"/>
</svg>